<?xml version="1.0" standalone="no"?>
<!DOCTYPE svg PUBLIC "-//W3C//DTD SVG 20010904//EN"
 "http://www.w3.org/TR/2001/REC-SVG-20010904/DTD/svg10.dtd">
<svg version="1.0" xmlns="http://www.w3.org/2000/svg"
 width="700.000000pt" height="700.000000pt" viewBox="0 0 700.000000 700.000000"
 preserveAspectRatio="xMidYMid meet">
<metadata>
Created by potrace 1.11, written by Peter Selinger 2001-2013
</metadata>
<g transform="translate(0.000000,700.000000) scale(0.100000,-0.100000)"
fill="#000000" stroke="none">
<path d="M2955 6994 c-716 -23 -1563 -85 -1788 -130 -243 -48 -464 -165 -648
-341 -196 -189 -329 -429 -383 -693 -25 -127 -79 -749 -106 -1225 -56 -1006
-31 -2125 71 -3165 30 -310 58 -420 155 -610 184 -360 534 -623 927 -695 87
-15 494 -54 837 -79 701 -52 1452 -68 2140 -46 749 24 1528 85 1730 136 276
70 510 216 689 430 179 215 272 439 306 734 33 289 72 808 97 1290 16 322 16
1478 0 1800 -38 734 -90 1332 -133 1499 -123 486 -525 867 -1017 965 -165 33
-814 87 -1402 117 -201 10 -1278 19 -1475 13z m840 -1609 c1060 -160 1778
-1189 1565 -2242 -45 -222 -151 -477 -277 -668 -277 -418 -697 -702 -1201
-812 -159 -34 -460 -43 -634 -19 -160 23 -341 74 -494 141 -71 31 -138 59
-149 62 -16 3 -329 -75 -918 -232 -78 -21 -87 -21 -83 -7 3 10 64 230 135 489
l130 473 -44 86 c-133 260 -194 504 -202 809 -6 206 9 345 57 532 131 505 487
952 950 1192 240 124 429 179 750 215 65 8 314 -4 415 -19z"/>
<path d="M3340 5079 c-254 -29 -492 -117 -710 -260 -131 -86 -334 -290 -423
-424 -117 -177 -191 -353 -239 -567 -20 -89 -23 -130 -23 -308 0 -226 11 -305
67 -480 35 -110 108 -270 161 -353 20 -32 37 -63 37 -70 0 -7 -34 -136 -75
-287 -42 -151 -74 -277 -73 -280 2 -3 133 28 293 70 l289 76 141 -71 c145 -74
278 -121 425 -152 66 -14 132 -18 300 -18 189 0 228 3 319 23 412 92 756 327
987 672 268 403 334 901 179 1366 -38 114 -105 255 -173 359 -313 487 -909
770 -1482 704z m40 -1108 l0 -110 -282 -3 -283 -3 -63 -34 c-127 -69 -195
-182 -195 -321 0 -139 68 -252 195 -321 l63 -34 283 -3 282 -3 0 -110 0 -109
-276 0 c-296 0 -348 6 -443 55 -310 157 -422 535 -245 827 74 121 212 227 345
262 41 11 123 15 337 15 l282 1 0 -109z m840 98 c86 -19 202 -84 267 -149 290
-287 223 -748 -136 -939 -104 -55 -151 -61 -455 -61 l-276 0 0 109 0 110 284
3 283 3 69 35 c260 133 260 507 0 640 l-69 35 -283 3 -284 3 0 110 0 109 278
0 c152 0 297 -5 322 -11z m-250 -569 l0 -120 -470 0 -470 0 0 120 0 120 470 0
470 0 0 -120z"/>
</g>
</svg>
