<svg xmlns="http://www.w3.org/2000/svg" viewBox="0 0 418.9 420.9"><path d="M357.8 61.2C318.8 21.9 265.7-.1 210.3 0 95.3 0 1.8 93.6 1.8 208.5c0 36.6 9.6 72.6 27.8 104.3L0 420.9l110.6-29c30.6 16.7 64.8 25.4 99.7 25.4h.1c114.9 0 208.5-93.6 208.5-208.6.1-55.3-21.8-108.5-61.1-147.5zM210.3 382c-31.1 0-61.6-8.3-88.3-24.1l-6.3-3.8-65.6 17.2 17.5-64-4.1-6.6C46.2 273.1 37 241.1 37 208.5 37 113 114.8 35.2 210.4 35.2c95.7.1 173.3 77.7 173.3 173.5-.1 95.6-77.8 173.3-173.4 173.3z" fill-rule="evenodd" clip-rule="evenodd" fill="#fff"/><path d="M104.9 210.4c0-22.1 17.9-40 40-40h51.6v-24.5h-51.6c-35.6 0-64.5 28.9-64.5 64.5s28.9 64.5 64.5 64.5h51.6v-24.5h-51.6c-22 0-40-17.9-40-40zm52.9 12.9H261v-25.8H157.8v25.8zm116.1-77.4h-51.6v24.5h51.6c22.1 0 40 17.9 40 40s-17.9 40-40 40h-51.6v24.5h51.6c35.6 0 64.5-28.9 64.5-64.5s-28.9-64.5-64.5-64.5z" fill="#fff"/></svg>